<?xml version="1.0" standalone="no"?><!DOCTYPE svg PUBLIC "-//W3C//DTD SVG 1.1//EN" "http://www.w3.org/Graphics/SVG/1.1/DTD/svg11.dtd"><svg t="1663632349824" class="icon" viewBox="0 0 1024 1024" version="1.1" xmlns="http://www.w3.org/2000/svg" p-id="2053" xmlns:xlink="http://www.w3.org/1999/xlink" width="200" height="200"><path d="M725.952 95.616A273.408 273.408 0 0 0 512 199.68a273.152 273.152 0 0 0-213.952-104.064A272.768 272.768 0 0 0 25.6 368.064c0 64.96 25.6 127.424 78.208 190.912 137.92 166.464 382.144 356.096 392.512 364.096a25.408 25.408 0 0 0 31.36 0c10.368-8 254.592-197.632 392.512-364.096 52.608-63.552 78.208-126.016 78.208-190.912a272.768 272.768 0 0 0-272.448-272.448z" p-id="2054" fill="#8a8a8a"></path></svg>